<svg xmlns="http://www.w3.org/2000/svg" viewBox="0 0 800 600"><defs><linearGradient id="g" x1="0" y1="0" x2="1" y2="1"><stop offset="0" stop-color="#FEF2F2"/><stop offset="1" stop-color="#FECACA"/></linearGradient></defs><rect width="800" height="600" fill="url(#g)"/><rect x="0" y="470" width="800" height="130" rx="0" fill="#e5e7eb" /><rect x="40" y="60" width="340" height="290" rx="20" fill="#fff" opacity=".7"/><rect x="430" y="106" width="46" height="40" rx="6" fill="#ED0909" /><rect x="484" y="106" width="46" height="40" rx="6" fill="#7F1D1D" /><rect x="538" y="106" width="46" height="40" rx="6" fill="#fff" /><rect x="592" y="106" width="46" height="40" rx="6" fill="#F59E0B" /><rect x="646" y="106" width="46" height="40" rx="6" fill="#FECACA" /><rect x="420" y="150" width="340" height="8" rx="4" fill="#7F1D1D" /><rect x="430" y="192" width="46" height="40" rx="6" fill="#7F1D1D" /><rect x="484" y="192" width="46" height="40" rx="6" fill="#fff" /><rect x="538" y="192" width="46" height="40" rx="6" fill="#F59E0B" /><rect x="592" y="192" width="46" height="40" rx="6" fill="#FECACA" /><rect x="646" y="192" width="46" height="40" rx="6" fill="#ED0909" /><rect x="420" y="236" width="340" height="8" rx="4" fill="#7F1D1D" /><rect x="430" y="278" width="46" height="40" rx="6" fill="#ED0909" /><rect x="484" y="278" width="46" height="40" rx="6" fill="#7F1D1D" /><rect x="538" y="278" width="46" height="40" rx="6" fill="#fff" /><rect x="592" y="278" width="46" height="40" rx="6" fill="#F59E0B" /><rect x="646" y="278" width="46" height="40" rx="6" fill="#FECACA" /><rect x="420" y="322" width="340" height="8" rx="4" fill="#7F1D1D" /><rect x="414" y="54" width="10" height="358" rx="4" fill="#7F1D1D" /><rect x="756" y="54" width="10" height="358" rx="4" fill="#7F1D1D" /><g transform="translate(210 190) scale(1.05)"><rect x="-44" y="64" width="88" height="120" rx="34" fill="#ED0909"/><rect x="-9" y="50" width="18" height="24" rx="8" fill="#8D5524"/><circle cx="0" cy="26" r="29" fill="#8D5524"/><path d="M-30 24A30 30 0 0 1 30 24Q10 6 -30 24Z" fill="#1c1917"/><circle cx="-10" cy="30" r="2.6" fill="#0F172A"/><circle cx="10" cy="30" r="2.6" fill="#0F172A"/><path d="M-7 41Q0 47 7 41" stroke="#0F172A" stroke-width="2.5" fill="none" stroke-linecap="round"/></g><rect x="60" y="340" width="470" height="260" rx="0" fill="#9f1239" /><rect x="60" y="340" width="470" height="14" rx="7" fill="#ED0909" /><rect x="230" y="300" width="140" height="90" rx="10" fill="#0F172A" /><rect x="240" y="310" width="120" height="60" rx="6" fill="#fff" /><rect x="250" y="322" width="70" height="8" rx="4" fill="#ED0909" /><rect x="250" y="338" width="50" height="8" rx="4" fill="#94A3B8" /><circle cx="340" cy="346" r="12" fill="#10B981" /><path d="M334 346l4 4 8-9" fill="none" stroke="#fff" stroke-width="3" stroke-linecap="round" stroke-linejoin="round"/><g transform="translate(640 240) scale(1.05)"><rect x="-44" y="64" width="88" height="120" rx="34" fill="#fff"/><rect x="-9" y="50" width="18" height="24" rx="8" fill="#5A3825"/><circle cx="0" cy="26" r="29" fill="#5A3825"/><path d="M-30 24A30 30 0 0 1 30 24Q10 6 -30 24Z" fill="#0f0f0f"/><circle cx="-10" cy="30" r="2.6" fill="#0F172A"/><circle cx="10" cy="30" r="2.6" fill="#0F172A"/><path d="M-7 41Q0 47 7 41" stroke="#0F172A" stroke-width="2.5" fill="none" stroke-linecap="round"/></g><rect x="590" y="330" width="52" height="88" rx="10" fill="#0F172A" transform="rotate(-12 616 374)"/><rect x="596" y="338" width="40" height="68" rx="6" fill="#10B981" transform="rotate(-12 616 374)"/><rect x="90" y="300" width="80" height="60" rx="6" fill="#fff" /><path d="M96 312h68M96 324h50M96 336h60" fill="none" stroke="#94A3B8" stroke-width="4" stroke-linecap="round"/></svg>