<svg xmlns="http://www.w3.org/2000/svg" viewBox="0 0 800 600"><defs><linearGradient id="g" x1="0" y1="0" x2="1" y2="1"><stop offset="0" stop-color="#FEF2F2"/><stop offset="1" stop-color="#FECACA"/></linearGradient></defs><rect width="800" height="600" fill="url(#g)"/><rect x="0" y="480" width="800" height="120" rx="0" fill="#e5e7eb" /><rect x="50" y="136" width="46" height="40" rx="6" fill="#ED0909" /><rect x="104" y="136" width="46" height="40" rx="6" fill="#7F1D1D" /><rect x="158" y="136" width="46" height="40" rx="6" fill="#fff" /><rect x="212" y="136" width="46" height="40" rx="6" fill="#F59E0B" /><rect x="266" y="136" width="46" height="40" rx="6" fill="#FECACA" /><rect x="40" y="180" width="300" height="8" rx="4" fill="#7F1D1D" /><rect x="50" y="228" width="46" height="40" rx="6" fill="#7F1D1D" /><rect x="104" y="228" width="46" height="40" rx="6" fill="#fff" /><rect x="158" y="228" width="46" height="40" rx="6" fill="#F59E0B" /><rect x="212" y="228" width="46" height="40" rx="6" fill="#FECACA" /><rect x="266" y="228" width="46" height="40" rx="6" fill="#ED0909" /><rect x="40" y="272" width="300" height="8" rx="4" fill="#7F1D1D" /><rect x="50" y="320" width="46" height="40" rx="6" fill="#ED0909" /><rect x="104" y="320" width="46" height="40" rx="6" fill="#7F1D1D" /><rect x="158" y="320" width="46" height="40" rx="6" fill="#fff" /><rect x="212" y="320" width="46" height="40" rx="6" fill="#F59E0B" /><rect x="266" y="320" width="46" height="40" rx="6" fill="#FECACA" /><rect x="40" y="364" width="300" height="8" rx="4" fill="#7F1D1D" /><rect x="50" y="412" width="46" height="40" rx="6" fill="#7F1D1D" /><rect x="104" y="412" width="46" height="40" rx="6" fill="#fff" /><rect x="158" y="412" width="46" height="40" rx="6" fill="#F59E0B" /><rect x="212" y="412" width="46" height="40" rx="6" fill="#FECACA" /><rect x="266" y="412" width="46" height="40" rx="6" fill="#ED0909" /><rect x="40" y="456" width="300" height="8" rx="4" fill="#7F1D1D" /><rect x="34" y="84" width="10" height="468" rx="4" fill="#7F1D1D" /><rect x="336" y="84" width="10" height="468" rx="4" fill="#7F1D1D" /><rect x="450" y="136" width="46" height="40" rx="6" fill="#ED0909" /><rect x="504" y="136" width="46" height="40" rx="6" fill="#7F1D1D" /><rect x="558" y="136" width="46" height="40" rx="6" fill="#fff" /><rect x="612" y="136" width="46" height="40" rx="6" fill="#F59E0B" /><rect x="666" y="136" width="46" height="40" rx="6" fill="#FECACA" /><rect x="440" y="180" width="300" height="8" rx="4" fill="#7F1D1D" /><rect x="450" y="228" width="46" height="40" rx="6" fill="#7F1D1D" /><rect x="504" y="228" width="46" height="40" rx="6" fill="#fff" /><rect x="558" y="228" width="46" height="40" rx="6" fill="#F59E0B" /><rect x="612" y="228" width="46" height="40" rx="6" fill="#FECACA" /><rect x="666" y="228" width="46" height="40" rx="6" fill="#ED0909" /><rect x="440" y="272" width="300" height="8" rx="4" fill="#7F1D1D" /><rect x="450" y="320" width="46" height="40" rx="6" fill="#ED0909" /><rect x="504" y="320" width="46" height="40" rx="6" fill="#7F1D1D" /><rect x="558" y="320" width="46" height="40" rx="6" fill="#fff" /><rect x="612" y="320" width="46" height="40" rx="6" fill="#F59E0B" /><rect x="666" y="320" width="46" height="40" rx="6" fill="#FECACA" /><rect x="440" y="364" width="300" height="8" rx="4" fill="#7F1D1D" /><rect x="450" y="412" width="46" height="40" rx="6" fill="#7F1D1D" /><rect x="504" y="412" width="46" height="40" rx="6" fill="#fff" /><rect x="558" y="412" width="46" height="40" rx="6" fill="#F59E0B" /><rect x="612" y="412" width="46" height="40" rx="6" fill="#FECACA" /><rect x="666" y="412" width="46" height="40" rx="6" fill="#ED0909" /><rect x="440" y="456" width="300" height="8" rx="4" fill="#7F1D1D" /><rect x="434" y="84" width="10" height="468" rx="4" fill="#7F1D1D" /><rect x="736" y="84" width="10" height="468" rx="4" fill="#7F1D1D" /><g transform="translate(400 330) scale(1.05)"><rect x="-44" y="64" width="88" height="120" rx="34" fill="#ED0909"/><rect x="-9" y="50" width="18" height="24" rx="8" fill="#8D5524"/><circle cx="0" cy="26" r="29" fill="#8D5524"/><path d="M-30 24A30 30 0 0 1 30 24Q10 6 -30 24Z" fill="#1c1917"/><circle cx="-10" cy="30" r="2.6" fill="#0F172A"/><circle cx="10" cy="30" r="2.6" fill="#0F172A"/><path d="M-7 41Q0 47 7 41" stroke="#0F172A" stroke-width="2.5" fill="none" stroke-linecap="round"/></g><rect x="345" y="395" width="110" height="80" rx="10" fill="#0F172A" transform="rotate(-8 400 435)"/><rect x="353" y="403" width="94" height="60" rx="6" fill="#fff" transform="rotate(-8 400 435)"/><rect x="600" y="100" width="90" height="46" rx="10" fill="#ED0909" /><path d="M614 123h62" fill="none" stroke="#fff" stroke-width="6" stroke-linecap="round"/><rect x="60" y="500" width="200" height="26" rx="6" fill="#F59E0B" /><rect x="60" y="526" width="200" height="20" rx="4" fill="#7F1D1D" /></svg>